<svg xmlns="http://www.w3.org/2000/svg" width="1920" height="920" fill="none"><g clip-path="url(#a)"><g stroke="#1E577B" stroke-linecap="square" stroke-linejoin="round" stroke-width="2" clip-path="url(#b)"><path d="M215.963 333h2M215.963 329h2M215.963 325h2M215.963 280.5h2M215.963 236h2M215.963 232h2"/></g><path stroke="#1E577B" stroke-linecap="square" stroke-linejoin="round" stroke-width="2" d="M575.963 728v2M579.963 728v2M583.963 728v2"/><path fill="#0A1D29" d="M1058.3 728h-71v7h71z"/><path stroke="#1E577B" stroke-linecap="square" stroke-width="2" d="M1054.3 731.5h-2"/><path stroke="#194967" stroke-linecap="square" d="M1048.3 731.5h-51.003"/><path stroke="#1E577B" stroke-linecap="square" stroke-width="2" d="M993.297 731.5h-2"/><path stroke="#1E577B" stroke-linecap="square" stroke-linejoin="round" stroke-width="2" d="M1461.63 728v2M1864.96 728v2M47.963 36v2M51.963 36v2M55.963 36v2M209.963 36v2M363.963 36v2"/><g stroke="#1E577B" stroke-linecap="square" stroke-linejoin="round" stroke-width="2" clip-path="url(#c)"><path d="M1479.96 72h-2M1479.96 76h-2M1479.96 80h-2M1479.96 129.5h-2M1479.96 179h-2"/></g><g stroke="#1E577B" stroke-linecap="square" stroke-linejoin="round" stroke-width="2" clip-path="url(#d)"><path d="M1862.96 75h-2M1862.96 79h-2M1862.96 83h-2M1862.96 372h-2M1862.96 661h-2"/></g><g stroke="#1E577B" stroke-linecap="square" stroke-linejoin="round" stroke-width="2" clip-path="url(#e)"><path d="M330.963 582h-2M330.963 586h-2M330.963 590h-2M330.963 705.5h-2M330.963 821h-2"/></g><path stroke="#1E577B" stroke-linecap="square" stroke-linejoin="round" stroke-width="2" d="M412.963 567v2M416.963 567v2M420.963 567v2M774.963 567v2M1128.96 567v2M1510.96 728v2M1514.96 728v2M1518.96 728v2M1693.96 728v2M1868.96 728v2M1872.96 728v2"/><g opacity=".5"><path stroke="#143A52" d="M203.982 469.136c296.073 170.937 674.659 69.496 845.598-226.577 170.94-296.072 69.49-674.659-226.578-845.596C526.929-773.975 148.343-672.533-22.594-376.46"/><path stroke="#54ADF7" stroke-linecap="square" stroke-linejoin="round" stroke-width="2" d="m204.848 469.636-1.732-1"/><g opacity=".4"><path stroke="#143A52" d="M684.213 738.893C392.786 345.378 475.545-209.877 869.059-501.303 1262.57-792.73 1817.83-709.971 2109.26-316.457c291.42 393.515 208.66 948.769-184.85 1240.196"/><path stroke="#54ADF7" stroke-linecap="square" stroke-linejoin="round" stroke-width="2" d="m683.618 738.089 1.19 1.607"/></g><path stroke="#143A52" d="M1222.41 509.878c192.42 186.7 499.76 182.06 686.46-10.364 186.7-192.423 182.06-499.764-10.36-686.464-192.42-186.7-499.76-182.06-686.46 10.364"/><path stroke="#54ADF7" stroke-linecap="square" stroke-linejoin="round" stroke-width="2" d="m1223.13 510.574-1.44-1.393"/></g><path stroke="#143A52" d="M195.594 787.576c-12.894 32.111-49.377 47.69-81.488 34.796-32.111-12.893-47.69-49.377-34.797-81.488 12.894-32.111 49.377-47.69 81.488-34.796"/><path stroke="#54ADF7" stroke-linecap="square" stroke-linejoin="round" stroke-width="2" d="m195.222 788.504.745-1.856"/><path stroke="#143A52" d="M1033.42 783.325c-28.02 4.895-54.697-13.849-59.593-41.867-4.895-28.018 13.849-54.7 41.863-59.595 28.02-4.895 54.7 13.849 59.6 41.867"/><path stroke="#54ADF7" stroke-linecap="square" stroke-linejoin="round" stroke-width="2" d="m1032.44 783.497 1.97-.344"/><path stroke="#143A52" d="M1154.86 1747.99c-291.431-393.52-208.673-948.773 184.84-1240.2 393.52-291.426 948.77-208.668 1240.2 184.847 291.42 393.513 208.67 948.773-184.85 1240.193" opacity=".4"/><path stroke="#143A52" d="M1693.05 1518.97c192.43 186.7 499.77 182.06 686.47-10.36 186.7-192.43 182.06-499.77-10.37-686.466-192.42-186.7-499.76-182.06-686.46 10.364"/><path fill="#194967" d="M1162.15 443.267c2.37.685 2.86 1.181 3.55 3.543.03.114.15.19.26.19.12 0 .23-.076.27-.19.69-2.362 1.18-2.858 3.54-3.543a.279.279 0 0 0 .19-.267.279.279 0 0 0-.19-.267c-2.36-.685-2.85-1.181-3.54-3.543a.287.287 0 0 0-.27-.19c-.11 0-.23.076-.26.19-.69 2.362-1.18 2.858-3.55 3.543a.293.293 0 0 0-.19.267c0 .152.08.229.19.267ZM1065.15 376.267c2.37.685 2.86 1.181 3.55 3.543.03.114.15.19.26.19.12 0 .23-.076.27-.19.69-2.362 1.18-2.858 3.54-3.543a.279.279 0 0 0 .19-.267.279.279 0 0 0-.19-.267c-2.36-.685-2.85-1.181-3.54-3.543a.287.287 0 0 0-.27-.19c-.11 0-.23.076-.26.19-.69 2.362-1.18 2.858-3.55 3.543a.293.293 0 0 0-.19.267c0 .152.08.229.19.267ZM1149.15 460.267c2.37.685 2.86 1.181 3.55 3.543.03.114.15.19.26.19.12 0 .23-.076.27-.19.69-2.362 1.18-2.858 3.54-3.543a.279.279 0 0 0 .19-.267.279.279 0 0 0-.19-.267c-2.36-.685-2.85-1.181-3.54-3.543a.287.287 0 0 0-.27-.19c-.11 0-.23.076-.26.19-.69 2.362-1.18 2.858-3.55 3.543a.293.293 0 0 0-.19.267c0 .152.08.229.19.267ZM818.154 832.267c2.362.685 2.857 1.181 3.543 3.543.038.114.152.19.266.19a.286.286 0 0 0 .267-.19c.686-2.362 1.181-2.858 3.543-3.543a.287.287 0 0 0 .19-.267.287.287 0 0 0-.19-.267c-2.362-.685-2.857-1.181-3.543-3.543a.286.286 0 0 0-.267-.19.286.286 0 0 0-.266.19c-.686 2.362-1.181 2.858-3.543 3.543a.288.288 0 0 0-.191.267c0 .152.077.229.191.267ZM100.154 180.267c2.362.685 2.857 1.181 3.543 3.543.038.114.152.19.266.19a.286.286 0 0 0 .267-.19c.686-2.362 1.181-2.858 3.543-3.543a.287.287 0 0 0 .19-.267.287.287 0 0 0-.19-.267c-2.362-.685-2.857-1.181-3.543-3.543a.286.286 0 0 0-.267-.19.286.286 0 0 0-.266.19c-.686 2.362-1.181 2.858-3.543 3.543a.288.288 0 0 0-.19.267c0 .152.076.229.19.267ZM1025.15 15.267c2.37.685 2.86 1.18 3.55 3.543.03.114.15.19.26.19.12 0 .23-.076.27-.19.69-2.362 1.18-2.858 3.54-3.543a.278.278 0 0 0 .19-.267.278.278 0 0 0-.19-.267c-2.36-.685-2.85-1.18-3.54-3.543a.287.287 0 0 0-.27-.19c-.11 0-.23.076-.26.19-.69 2.362-1.18 2.858-3.55 3.543a.292.292 0 0 0-.19.267c0 .152.08.229.19.267ZM1749.15-1.733c2.37.685 2.86 1.18 3.55 3.543.03.114.15.19.26.19.12 0 .23-.076.27-.19.69-2.362 1.18-2.858 3.54-3.543a.278.278 0 0 0 .19-.267.278.278 0 0 0-.19-.267c-2.36-.685-2.85-1.18-3.54-3.543a.287.287 0 0 0-.27-.19c-.11 0-.23.076-.26.19-.69 2.362-1.18 2.858-3.55 3.543a.292.292 0 0 0-.19.267c0 .152.08.229.19.267ZM1545.15 411.267c2.37.685 2.86 1.181 3.55 3.543.03.114.15.19.26.19.12 0 .23-.076.27-.19.69-2.362 1.18-2.858 3.54-3.543a.279.279 0 0 0 .19-.267.279.279 0 0 0-.19-.267c-2.36-.685-2.85-1.181-3.54-3.543a.287.287 0 0 0-.27-.19c-.11 0-.23.076-.26.19-.69 2.362-1.18 2.858-3.55 3.543a.293.293 0 0 0-.19.267c0 .152.08.229.19.267Z"/><g fill="#143A52" opacity=".5"><g opacity=".3"><path d="M790.463 302.475h49.412l-39.622 147.97H750.84l39.623-147.97ZM693.914 302.475h49.412l-39.622 147.97h-49.412l39.622-147.97ZM597.343 302.475h49.413l-39.623 147.97h-49.412l39.622-147.97Z"/></g><g opacity=".3"><path d="M182.163 673h17.736l-24.942 93h-17.736l24.942-93ZM216.825 673h17.736l-24.942 93h-17.736l24.942-93ZM251.486 673h17.735l-24.942 93h-17.736l24.943-93Z"/></g><g opacity=".5"><path d="M1767.46 38.475h49.41l-39.62 147.97h-49.41l39.62-147.97ZM1670.91 38.475h49.42l-39.63 147.97h-49.41l39.62-147.97ZM1574.34 38.475h49.41l-39.62 147.97h-49.42l39.63-147.97Z"/></g><g opacity=".3"><path d="M831.107 832.569h49.412L840.897 980.54h-49.412l39.622-147.971ZM734.558 832.569h49.412L744.348 980.54h-49.412l39.622-147.971ZM637.988 832.569H687.4L647.778 980.54h-49.412l39.622-147.971Z"/></g></g></g><defs><clipPath id="a"><path fill="#fff" d="M0 0h2401v1729H0z"/></clipPath><clipPath id="b"><path fill="#fff" d="M193.963 355V210h46v145z"/></clipPath><clipPath id="c"><path fill="#fff" d="M1501.96 50v151h-46V50z"/></clipPath><clipPath id="d"><path fill="#fff" d="M1884.96 53v630h-46V53z"/></clipPath><clipPath id="e"><path fill="#fff" d="M352.963 560v283h-46V560z"/></clipPath></defs></svg>